<svg width="18" height="15" viewBox="0 0 18 15" fill="none" xmlns="http://www.w3.org/2000/svg">
<path d="M9.7904 13.9039L9.78879 13.9054C9.34645 14.307 8.66422 14.3068 8.22195 13.8994L8.21955 13.8972L8.12789 13.8139L8.12701 13.8131C5.92904 11.8245 4.15477 10.216 2.93695 8.70639C1.72643 7.20587 1.1179 5.86512 1.16625 4.41775C1.21096 3.15487 1.85915 1.94611 2.89795 1.23884L2.89822 1.23866C4.85625 -0.0963609 7.29312 0.514262 8.61973 2.067L8.99988 2.51195L9.38003 2.067C10.7077 0.513047 13.144 -0.103445 15.1005 1.23793L15.1018 1.23884C16.1407 1.94619 16.7889 3.15514 16.8335 4.41818L16.8335 4.41857C16.8857 5.86522 16.2778 7.20555 15.0659 8.70858C13.8509 10.2153 12.0825 11.8221 9.89449 13.81L9.87374 13.8289L9.87199 13.8305L9.7904 13.9039Z" stroke="white"/>
</svg>
