<svg width="21" height="18" viewBox="0 0 21 18" fill="none" xmlns="http://www.w3.org/2000/svg">
<path d="M20.3622 9.82012C20.4747 9.77195 20.5705 9.69184 20.6379 9.58971C20.7053 9.48758 20.7412 9.36793 20.7412 9.24559C20.7412 9.12325 20.7053 9.0036 20.6379 8.90147C20.5705 8.79935 20.4747 8.71923 20.3622 8.67107L2.36106 0.956534L2.36017 0.95565L1.80156 0.715233C1.69571 0.669748 1.57934 0.654406 1.46532 0.670903C1.35129 0.6874 1.24405 0.735094 1.15543 0.808715C1.06681 0.882337 1.00026 0.979022 0.963139 1.08809C0.926018 1.19716 0.919767 1.31436 0.945076 1.42676L1.07766 2.01896L1.07677 2.02161L2.68279 9.24559L1.07677 16.4696V16.4731L0.944191 17.0653C0.919288 17.1776 0.925845 17.2945 0.963139 17.4033C1.00043 17.5121 1.06702 17.6085 1.15557 17.6819C1.24412 17.7553 1.35119 17.8028 1.46501 17.8192C1.57883 17.8357 1.69498 17.8204 1.80067 17.7751L20.3622 9.82012V9.82012ZM17.0715 9.8705L3.82388 9.8705L3.9326 9.38171C3.9526 9.29207 3.9526 9.19912 3.9326 9.10948L3.82388 8.62069L17.0715 8.62069L18.5291 9.24559L17.0724 9.87138L17.0715 9.8705Z" fill="#53B175"/>
</svg>
